<svg width="59" height="57" viewBox="0 0 59 57" fill="none" xmlns="http://www.w3.org/2000/svg">
<path d="M50.0521 44.9352C48.4563 46.3381 46.701 47.5468 44.8089 48.5827C42.894 49.6187 40.8652 50.4173 38.7451 50.9784C36.625 51.5396 34.391 51.8417 32.0886 51.8417C28.6007 51.8417 25.2041 51.3022 22.0126 50.2446C18.8895 49.2086 16.1083 47.6331 13.7831 45.5827C11.4579 43.5755 9.01866 40.2086 7.58249 37.036C6.32869 34.2734 5.80438 31.295 5.80438 26.6978C5.80438 23.4388 6.60225 19.8345 7.97003 16.7698C9.29222 13.8345 11.1387 11.2446 13.4412 9.08633C15.7208 6.94964 18.5019 5.20144 21.7162 3.90647C24.5886 2.76259 27.9852 2.20144 32.1114 2.20144C35.3712 2.20144 38.4943 2.69784 41.3439 3.66906C44.125 4.6187 46.5643 5.97842 48.5931 7.72662C50.4624 9.34532 51.625 11.3094 52.856 13.964C53.9275 16.2302 54.3378 18.2374 54.3378 21.3669C54.3378 23.9137 53.8591 26.3525 52.9244 28.5755C51.9898 30.7554 51.2831 32.0935 49.8697 33.7554C48.388 35.4388 47.5673 36.3669 45.9943 37.2302C44.1706 38.2446 42.7801 38.7194 41.663 38.7194C40.774 38.7194 40.5004 38.5252 40.4776 38.5036C40.3408 38.3957 40.2269 38.2446 40.1585 37.8777C40.0901 37.3813 40.1585 36.7122 40.3636 35.9568C40.5916 35.0935 40.9336 34.2734 41.4351 33.1295L50.5536 9.94964H44.5582L43.5095 12.5827C42.6889 11.6763 41.7086 10.8993 40.6144 10.295C38.0156 8.8705 35.8272 8.28777 33.046 8.28777C29.8089 8.28777 26.777 9.08633 24.087 10.6619C21.4655 12.1942 19.2086 14.1799 17.4077 16.554C15.6296 18.8849 15.1737 20.1367 14.353 22.446L14.2162 22.8345C13.236 25.5971 12.7345 28.3165 12.7345 30.9281C12.7345 32.6763 13.0764 34.3813 13.7375 35.9568C14.3986 37.554 15.3105 38.9352 16.4503 40.0575C17.5673 41.223 18.9579 42.1511 20.5992 42.8633C22.195 43.554 23.9503 43.9209 25.8424 43.9209C27.9396 43.9209 29.8545 43.5971 32.0886 42.8633C33.3196 42.4532 34.4138 41.8705 35.4624 41.0288C35.6904 41.3957 35.9867 41.7194 36.3287 42.0216C37.6509 43.2734 39.4062 43.9209 41.5035 43.9209C43.6007 43.9209 45.8576 43.2518 48.5703 41.8058C50.9867 40.5108 52.4001 39.0216 54.1326 37.0576C56.0931 34.8345 57.0734 32.9352 58.122 30.4101C59.3074 27.6259 59.9001 24.5827 59.9001 21.3885C59.9001 17.3741 59.3302 14.6331 57.8712 11.6115C56.3211 8.41726 54.7481 5.84892 52.1722 3.69065C49.619 1.53237 46.5643 -0.129498 43.0992 -1.29497C39.6798 -2.43885 36.0095 -3 32.157 -3C27.4609 -3 23.4488 -2.33094 19.9153 -0.971224C16.0855 0.496402 12.6889 2.56835 9.81654 5.15827C6.9442 7.79137 4.64176 10.9424 3.00042 14.482C1.2907 18.1511 0.333252 22.5971 0.333252 26.7194C0.333252 32.2662 1.06273 36.1511 2.77246 39.6906C4.66456 43.5755 7.74207 47.5683 10.5916 49.8993C13.5779 52.3597 16.9974 54.1727 20.7588 55.295C24.4746 56.4173 28.3272 57 32.157 57C34.7785 57 37.4685 56.6547 40.1585 55.9856C42.8712 55.2734 45.4016 54.3022 47.6813 53.0719C50.0065 51.8417 52.2405 50.3093 54.2922 48.4964C56.3439 46.6834 58.6691 43.8561 59.4898 42.4748C59.9229 41.7194 60.1965 41.1583 60.3333 40.8129H54.0415C52.8332 42.2158 51.5339 43.6187 50.0521 44.9352ZM34.0491 34.6834C33.0232 35.9137 32.3621 36.6475 31.5643 37.1439C30.6752 37.7266 29.9685 38.0935 29.0567 38.2878H29.0339C28.122 38.5036 27.1418 38.6331 26.1387 38.6331C24.9761 38.6331 23.9275 38.4388 22.9928 38.0504C22.0354 37.6619 21.2375 37.1439 20.5308 36.4317C19.8469 35.741 19.277 34.9209 18.8667 33.9712C18.4791 33.0216 18.274 31.964 18.274 30.8417C18.274 28.8993 18.6615 26.7842 19.4366 24.5827C19.5278 24.3237 19.619 24.0432 19.6874 23.8489C20.3029 22.0576 20.622 21.4964 21.7618 19.705C22.8105 18.0647 24.4518 16.554 26.7314 15.1079C28.5323 13.964 30.5384 13.3813 32.7269 13.3813C33.6159 13.3813 34.5506 13.4892 35.5308 13.6835C36.2375 13.8345 36.6022 14.0288 37.3089 14.4173L37.3545 14.4388C37.4457 14.482 37.5369 14.5252 37.6509 14.5899L37.7193 14.6331C38.5171 15.0647 39.2238 15.6259 39.8393 16.3165C40.3181 16.8561 40.7056 17.5468 41.0019 18.4101L36.4199 30.6043C35.7132 32.2446 34.9153 33.6259 34.0491 34.6834Z" fill="#464646"/>
</svg>
