<svg width="60" height="60" viewBox="0 0 60 60" fill="none" xmlns="http://www.w3.org/2000/svg">
<path fill-rule="evenodd" clip-rule="evenodd" d="M0 30C0 13.4315 13.4315 0 30 0C46.5685 0 60 13.4315 60 30C60 46.5685 46.5685 60 30 60C13.4315 60 0 46.5685 0 30ZM24.51 29.1429V32.4H29.9158C29.6979 33.7979 28.2818 36.4986 24.51 36.4986C21.2556 36.4986 18.6003 33.8114 18.6003 30.5C18.6003 27.1886 21.2556 24.5014 24.51 24.5014C26.3618 24.5014 27.601 25.2886 28.309 25.9672L30.8962 23.4836C29.235 21.9364 27.0835 21 24.51 21C19.2403 21 14.9783 25.2479 14.9783 30.5C14.9783 35.7522 19.2403 40 24.51 40C30.0111 40 33.6604 36.1457 33.6604 30.7172C33.6604 30.0929 33.5923 29.6179 33.5106 29.1429H24.51ZM42.2117 29.1428H44.9351V31.8571H42.2117V34.5714H39.4884V31.8571H36.7651V29.1428H39.4884V26.4286H42.2117V29.1428Z" fill="#464646"/>
</svg>
