<svg width="59" height="59" viewBox="0 0 59 59" fill="none" xmlns="http://www.w3.org/2000/svg">
<path d="M60.0292 30.0425C60.0292 34.3712 60.0413 38.7 60.0292 43.0409C60.005 49.3284 57.0789 53.9837 51.8553 57.2726C48.7962 59.183 45.3985 60.0294 41.7952 60.0294C33.9115 60.0294 26.04 60.0657 18.1563 60.0173C12.6788 59.9811 7.96315 58.0464 4.22688 53.9837C1.9174 51.4686 0.538968 48.5062 0.139948 45.0843C0.0553073 44.3588 0.0432158 43.6454 0.0432158 42.9199C0.0432158 34.2987 0.0311243 25.6774 0.0432158 17.0562C0.0794903 10.7565 3.00564 6.10129 8.22917 2.8124C11.3125 0.889853 14.7223 0.0555393 18.3498 0.0555393C26.2092 0.0555393 34.0687 0.0192648 41.9282 0.0676308C47.4298 0.103905 52.1576 2.05064 55.8939 6.13757C58.1792 8.64051 59.5455 11.6029 59.9324 14.9886C60.0896 16.3186 60.0171 17.6487 60.0292 18.9667C60.0413 22.6667 60.0292 26.3546 60.0292 30.0425ZM4.52916 30.0425C4.52916 34.4801 4.51707 38.9056 4.52916 43.3431C4.54126 46.3902 5.65368 49.0141 7.73341 51.1905C10.5266 54.1046 14.0089 55.5193 18.0112 55.5435C25.9553 55.5918 33.8873 55.5556 41.8315 55.5556C44.3949 55.5556 46.8373 54.9994 49.0622 53.7177C53.2217 51.3356 55.5674 47.8291 55.5674 42.9199C55.5674 34.1899 55.5674 25.4719 55.5674 16.7418C55.5674 13.7189 54.4671 11.1072 52.3994 8.9428C49.6305 6.01665 46.136 4.57776 42.1458 4.55358C34.1171 4.49312 26.1004 4.5294 18.0717 4.5294C15.5687 4.5294 13.1988 5.12188 11.0223 6.35521C6.87492 8.74933 4.51707 12.2559 4.52916 17.165C4.52916 21.4575 4.52916 25.75 4.52916 30.0425Z" fill="#464646"/>
<path d="M30.0785 42.8596C22.2674 42.8596 16.004 36.6203 16.0161 28.8334C16.0282 21.252 22.3763 15.037 30.1269 15.0491C37.9138 15.0491 44.2014 21.3004 44.1893 29.0148C44.1772 36.6566 37.8534 42.8596 30.0785 42.8596ZM30.0785 38.3857C35.3867 38.3857 39.7155 34.1658 39.7155 28.9785C39.7155 23.7671 35.423 19.5229 30.1269 19.5229C24.8187 19.5229 20.49 23.7429 20.49 28.9301C20.49 34.1416 24.7825 38.3857 30.0785 38.3857Z" fill="#464646"/>
<path d="M42.8591 13.9113C42.8591 12.1944 44.1771 10.8159 45.8216 10.8159C47.466 10.8159 48.784 12.2064 48.784 13.9113C48.784 15.5921 47.466 16.9705 45.8457 16.9826C44.2013 16.9947 42.8591 15.6283 42.8591 13.9113Z" fill="#464646"/>
</svg>
