<svg width="60" height="60" viewBox="0 0 60 60" fill="none" xmlns="http://www.w3.org/2000/svg">
<path d="M29.1334 19.4984L29.2635 21.6932L27.0958 21.4244C19.2055 20.3942 12.3123 16.9005 6.45964 11.0328L3.59832 8.12141L2.86132 10.2714C1.3006 15.0641 2.29773 20.1255 5.54922 23.5296C7.28336 25.4108 6.89318 25.6796 3.9018 24.5598C2.86132 24.2015 1.9509 23.9327 1.86419 24.0671C1.56072 24.3806 2.6012 28.4566 3.42491 30.0691C4.5521 32.3087 6.84982 34.5035 9.36432 35.8024L11.4886 36.8326L8.97414 36.8774C6.54635 36.8774 6.45964 36.9222 6.71976 37.8628C7.58683 40.7742 11.0117 43.8648 14.8268 45.2086L17.5147 46.1492L15.1737 47.5825C11.7054 49.6429 7.63018 50.8075 3.55497 50.8971C1.60407 50.9419 0 51.121 0 51.2554C0 51.7033 5.2891 54.2116 8.36719 55.197C17.6014 58.1085 28.5698 56.8543 36.807 51.8825C42.6597 48.344 48.5123 41.3117 51.2436 34.5035C52.7176 30.8754 54.1916 24.2463 54.1916 21.0661C54.1916 19.0057 54.3217 18.7369 56.7495 16.2734C58.1801 14.8401 59.5241 13.2724 59.7842 12.8245C60.2177 11.9735 60.1744 11.9735 57.9634 12.7349C54.2783 14.0787 53.7581 13.8995 55.5789 11.8839C56.9229 10.4506 58.527 7.85267 58.527 7.09122C58.527 6.95684 57.8767 7.1808 57.1397 7.58392C56.3593 8.03183 54.6252 8.7037 53.3246 9.10682L50.9835 9.86827L48.8592 8.39016C47.6886 7.58392 46.0412 6.68809 45.1741 6.41935C42.9631 5.79227 39.5816 5.88185 37.5873 6.59851C32.1682 8.61412 28.7432 13.8099 29.1334 19.4984Z" fill="#464646"/>
</svg>
